<svg width="42" height="42" viewBox="0 0 42 42" fill="none" xmlns="http://www.w3.org/2000/svg">
<path d="M21 41.8333C32.5062 41.8333 41.8333 32.5062 41.8333 21C41.8333 20.0354 40.3875 19.875 39.8895 20.7021C38.8276 22.4611 37.3792 23.9554 35.6542 25.0718C33.9291 26.1882 31.9727 26.8974 29.9329 27.1456C27.8932 27.3939 25.8238 27.1747 23.8813 26.5047C21.9388 25.8347 20.1743 24.7315 18.7214 23.2786C17.2684 21.8256 16.1652 20.0611 15.4952 18.1186C14.8252 16.1762 14.6061 14.1067 14.8543 12.067C15.1026 10.0273 15.8118 8.07083 16.9282 6.34579C18.0445 4.62076 19.5388 3.1724 21.2979 2.11041C22.125 1.61041 21.9645 0.166656 21 0.166656C9.49371 0.166656 0.166626 9.49374 0.166626 21C0.166626 32.5062 9.49371 41.8333 21 41.8333Z" fill="white"/>
</svg>
