<svg width="51" height="51" viewBox="0 0 51 51" fill="none" xmlns="http://www.w3.org/2000/svg">
<path d="M25.5 0.46875C26.0525 0.46875 26.5824 0.688243 26.9731 1.07894C27.3638 1.46964 27.5833 1.99955 27.5833 2.55208V6.71875C27.5833 7.27128 27.3638 7.80119 26.9731 8.19189C26.5824 8.58259 26.0525 8.80208 25.5 8.80208C24.9475 8.80208 24.4176 8.58259 24.0269 8.19189C23.6362 7.80119 23.4167 7.27128 23.4167 6.71875V2.55208C23.4167 1.99955 23.6362 1.46964 24.0269 1.07894C24.4176 0.688243 24.9475 0.46875 25.5 0.46875ZM0.5 25.4687C0.5 24.9162 0.719493 24.3863 1.11019 23.9956C1.50089 23.6049 2.0308 23.3854 2.58333 23.3854H6.75C7.30253 23.3854 7.83244 23.6049 8.22314 23.9956C8.61384 24.3863 8.83333 24.9162 8.83333 25.4687C8.83333 26.0213 8.61384 26.5512 8.22314 26.9419C7.83244 27.3326 7.30253 27.5521 6.75 27.5521H2.58333C2.0308 27.5521 1.50089 27.3326 1.11019 26.9419C0.719493 26.5512 0.5 26.0213 0.5 25.4687ZM44.25 23.3854C43.6975 23.3854 43.1676 23.6049 42.7769 23.9956C42.3862 24.3863 42.1667 24.9162 42.1667 25.4687C42.1667 26.0213 42.3862 26.5512 42.7769 26.9419C43.1676 27.3326 43.6975 27.5521 44.25 27.5521H48.4167C48.9692 27.5521 49.4991 27.3326 49.8898 26.9419C50.2805 26.5512 50.5 26.0213 50.5 25.4687C50.5 24.9162 50.2805 24.3863 49.8898 23.9956C49.4991 23.6049 48.9692 23.3854 48.4167 23.3854H44.25ZM27.5833 44.2187C27.5833 43.6662 27.3638 43.1363 26.9731 42.7456C26.5824 42.3549 26.0525 42.1354 25.5 42.1354C24.9475 42.1354 24.4176 42.3549 24.0269 42.7456C23.6362 43.1363 23.4167 43.6662 23.4167 44.2187V48.3854C23.4167 48.9379 23.6362 49.4679 24.0269 49.8586C24.4176 50.2493 24.9475 50.4687 25.5 50.4687C26.0525 50.4687 26.5824 50.2493 26.9731 49.8586C27.3638 49.4679 27.5833 48.9379 27.5833 48.3854V44.2187ZM13.7146 37.2542C14.1051 37.6448 14.3246 38.1747 14.3246 38.7271C14.3246 39.2795 14.1051 39.8093 13.7146 40.2L10.7708 43.1458C10.5787 43.3448 10.3488 43.5035 10.0946 43.6127C9.84042 43.7219 9.56704 43.7794 9.29042 43.7818C9.0138 43.7842 8.73946 43.7315 8.48343 43.6267C8.22739 43.522 7.99479 43.3673 7.79918 43.1717C7.60357 42.976 7.44887 42.7434 7.34412 42.4874C7.23937 42.2314 7.18666 41.957 7.18906 41.6804C7.19147 41.4038 7.24894 41.1304 7.35812 40.8762C7.46731 40.6221 7.62602 40.3922 7.825 40.2L10.7708 37.2542C11.1615 36.8636 11.6913 36.6442 12.2437 36.6442C12.7962 36.6442 13.3239 36.8636 13.7146 37.2542ZM43.1771 7.79167C43.5676 8.18235 43.7871 8.71216 43.7871 9.26458C43.7871 9.81701 43.5676 10.3468 43.1771 10.7375L40.2312 13.6833C40.0391 13.8823 39.8092 14.041 39.555 14.1502C39.3008 14.2594 39.0275 14.3169 38.7508 14.3193C38.4742 14.3217 38.1999 14.269 37.9438 14.1642C37.6878 14.0595 37.4552 13.9048 37.2596 13.7092C37.064 13.5135 36.9093 13.2809 36.8045 13.0249C36.6998 12.7689 36.6471 12.4945 36.6495 12.2179C36.6519 11.9413 36.7094 11.6679 36.8185 11.4137C36.9277 11.1596 37.0864 10.9297 37.2854 10.7375L40.2312 7.79167C40.6219 7.4011 41.1517 7.18169 41.7042 7.18169C42.2566 7.18169 42.7864 7.4011 43.1771 7.79167ZM7.82292 7.79167C8.2136 7.4011 8.74341 7.18169 9.29583 7.18169C9.84826 7.18169 10.3781 7.4011 10.7687 7.79167L13.7146 10.7375C13.9182 10.9285 14.0814 11.1584 14.1944 11.4136C14.3075 11.6689 14.368 11.9442 14.3726 12.2234C14.3771 12.5025 14.3255 12.7797 14.2208 13.0385C14.1161 13.2972 13.9605 13.5323 13.7632 13.7298C13.5658 13.9273 13.3309 14.0831 13.0721 14.1879C12.8134 14.2928 12.5363 14.3446 12.2572 14.3403C11.978 14.3359 11.7026 14.2755 11.4473 14.1627C11.192 14.0498 10.9619 13.8868 10.7708 13.6833L7.82292 10.7396C7.43235 10.3489 7.21294 9.81909 7.21294 9.26667C7.21294 8.71424 7.43235 8.18235 7.82292 7.79167ZM37.2854 37.2542C37.6761 36.8636 38.2059 36.6442 38.7583 36.6442C39.3108 36.6442 39.8406 36.8636 40.2312 37.2542L43.1771 40.2C43.3761 40.3922 43.5348 40.6221 43.644 40.8762C43.7531 41.1304 43.8106 41.4038 43.813 41.6804C43.8154 41.957 43.7627 42.2314 43.658 42.4874C43.5532 42.7434 43.3985 42.976 43.2029 43.1717C43.0073 43.3673 42.7747 43.522 42.5187 43.6267C42.2626 43.7315 41.9883 43.7842 41.7117 43.7818C41.435 43.7794 41.1617 43.7219 40.9075 43.6127C40.6533 43.5035 40.4234 43.3448 40.2312 43.1458L37.2854 40.2C36.8948 39.8093 36.6754 39.2795 36.6754 38.7271C36.6754 38.1747 36.8948 37.6448 37.2854 37.2542ZM10.9167 25.4687C10.9167 23.5536 11.2939 21.6573 12.0268 19.8879C12.7596 18.1186 13.8338 16.511 15.188 15.1568C16.5422 13.8026 18.1499 12.7284 19.9192 11.9955C21.6885 11.2626 23.5849 10.8854 25.5 10.8854C27.4151 10.8854 29.3115 11.2626 31.0808 11.9955C32.8501 12.7284 34.4578 13.8026 35.812 15.1568C37.1662 16.511 38.2404 18.1186 38.9732 19.8879C39.7061 21.6573 40.0833 23.5536 40.0833 25.4687C40.0833 29.3365 38.5469 33.0458 35.812 35.7807C33.0771 38.5156 29.3677 40.0521 25.5 40.0521C21.6323 40.0521 17.9229 38.5156 15.188 35.7807C12.4531 33.0458 10.9167 29.3365 10.9167 25.4687Z" fill="white"/>
</svg>
