<?xml version="1.0" standalone="no"?>
<svg version="1.0" xmlns="http://www.w3.org/2000/svg"
 width="256" height="256" viewBox="0 0 256 225"
 preserveAspectRatio="xMidYMid meet">
<defs>
  <linearGradient id="wingGrad" x1="0%" y1="0%" x2="100%" y2="100%">
    <stop offset="0%" style="stop-color:#8dc87a;stop-opacity:1" />
    <stop offset="100%" style="stop-color:#1a5c3a;stop-opacity:1" />
  </linearGradient>
  <linearGradient id="ballGrad" x1="0%" y1="0%" x2="100%" y2="100%">
    <stop offset="0%" style="stop-color:#2d7a50;stop-opacity:1" />
    <stop offset="100%" style="stop-color:#0e3d24;stop-opacity:1" />
  </linearGradient>
</defs>
<g transform="translate(0,225) scale(0.100000,-0.100000)" stroke="none">

  <!-- outer circle arcs -->
  <path fill="#1a5c3a" d="M1120 2235 c-295 -59 -540 -301 -605 -599 -14 -61 -16 -106 -12 -195
6 -135 32 -222 99 -336 59 -100 224 -262 246 -241 4 4 0 12 -9 17 -30 16 -127
152 -168 234 -63 126 -86 227 -85 370 1 101 5 133 28 201 55 172 195 330 361
409 117 56 177 69 305 69 223 -2 416 -96 556 -272 105 -133 149 -272 141 -452
-8 -188 -71 -349 -199 -507 -28 -34 -55 -63 -60 -63 -4 0 -8 -4 -8 -10 0 -27
38 -1 128 87 107 107 159 192 202 328 28 90 37 240 20 331 -58 312 -306 563
-623 628 -90 19 -226 19 -317 1z"/>
  <path fill="#1a5c3a" d="M2000 2184 c0 -3 20 -30 45 -61 216 -265 266 -613 135 -940 -80 -199
-264 -394 -469 -497 -68 -35 -256 -96 -293 -96 -15 0 -28 -4 -28 -10 0 -25
203 2 325 43 264 90 493 292 627 552 117 227 126 409 33 604 -62 130 -177 268
-306 367 -56 43 -69 50 -69 38z"/>
  <path fill="#1a5c3a" d="M465 2122 c-146 -122 -269 -304 -309 -459 -63 -242 45 -535 283 -774
157 -157 298 -240 489 -290 89 -23 259 -38 249 -22 -4 6 -26 13 -49 17 -68 11
-247 74 -307 108 -343 195 -541 541 -518 907 7 106 42 241 84 324 33 66 114
186 142 211 21 19 28 36 14 36 -5 0 -39 -26 -78 -58z"/>

  <!-- ball + center body -->
  <path fill="url(#ballGrad)" stroke="#0a2d1a" stroke-width="28" stroke-linejoin="round" d="M1130 2136 c-82 -22 -123 -49 -151 -100 -19 -34 -45 -60 -95 -93
-149 -100 -206 -165 -250 -292 -31 -86 -30 -116 6 -219 16 -48 37 -118 46
-157 23 -105 62 -223 91 -284 29 -58 90 -113 170 -152 50 -25 78 -27 328 -27
294 1 296 1 356 31 67 32 150 113 179 172 14 29 20 60 19 96 -1 30 6 83 16
119 9 36 23 97 31 135 7 39 23 97 35 130 28 80 22 146 -26 241 -57 116 -96
148 -283 232 -89 39 -166 72 -170 72 -5 0 -17 19 -28 42 -15 35 -26 45 -59 55
-52 15 -158 15 -215 -1z m432 -168 l131 -62 -5 -160 c-4 -142 -7 -160 -24
-173 -18 -14 -18 -14 6 -8 20 5 39 -6 105 -61 44 -36 84 -69 89 -74 4 -5 -1
-54 -14 -112 -39 -188 -26 -169 -170 -248 -69 -39 -131 -70 -136 -70 -5 0 -20
-19 -34 -40 -13 -22 -42 -61 -65 -86 l-40 -46 -81 -5 c-146 -10 -163 -4 -264
96 -72 72 -100 92 -157 115 -154 62 -155 62 -179 146 -12 42 -28 106 -37 143
l-15 67 55 71 55 70 -7 155 c-9 177 -21 150 104 236 l74 50 123 -28 124 -28 1
-31 1 -30 7 30 c5 25 23 40 101 87 52 32 101 57 108 58 8 0 72 -28 144 -62z"/>

  <!-- ball inner detail -->
  <path fill="white" stroke="#0a2d1a" stroke-width="28" stroke-linejoin="round" d="M1170 1651 c0 -10 -198 -181 -209 -181 -4 0 17 -68 46 -152 46 -129
53 -156 44 -177 -11 -24 -10 -25 4 -7 8 11 15 24 15 28 0 5 67 8 149 6 l150
-3 5 29 c4 16 24 87 46 157 l40 127 45 18 c25 9 43 19 41 21 -2 3 -24 -4 -49
-15 -39 -17 -47 -18 -76 -6 -49 21 -193 109 -224 138 -15 14 -27 21 -27 17z"/>

  <!-- wings right -->
  <path fill="url(#wingGrad)" d="M2505 1323 c-43 -172 -140 -336 -277 -469 -94 -91 -167 -143 -283
-202 -86 -43 -290 -110 -317 -104 -5 1 -8 -3 -8 -9 0 -7 20 -9 63 -4 221 23
387 77 652 210 l200 100 12 75 c6 41 12 124 12 184 1 116 -17 286 -29 286 -4
0 -15 -30 -25 -67z"/>

  <!-- wings left -->
  <path fill="url(#wingGrad)" d="M27 1366 c-29 -75 -33 -358 -7 -473 l11 -52 102 -54 c284 -150 483
-217 751 -252 63 -9 60 16 -4 27 -112 19 -269 86 -385 163 -207 138 -366 350
-427 572 -23 82 -31 96 -41 69z"/>

  <!-- bottom left outer -->
  <path fill="url(#wingGrad)" d="M50 750 c0 -16 86 -183 124 -242 41 -64 71 -103 113 -151 l32 -36 58
20 c147 51 496 129 575 129 17 0 28 5 26 11 -2 6 -43 13 -98 16 -267 13 -539
92 -745 216 -85 52 -85 51 -85 37z"/>

  <!-- bottom right outer -->
  <path fill="url(#wingGrad)" d="M2450 729 c-125 -84 -292 -153 -470 -192 -120 -27 -349 -53 -375 -43
-8 3 -15 0 -15 -7 0 -8 42 -19 118 -31 125 -20 380 -82 475 -115 l58 -20 28
32 c60 68 80 94 123 162 44 68 100 172 118 221 13 33 -4 31 -60 -7z"/>

  <!-- bottom left inner -->
  <path fill="#1a5c3a" d="M1140 479 c-36 -10 -126 -30 -200 -44 -74 -14 -177 -35 -229 -46
-138 -31 -341 -102 -341 -119 0 -12 152 -111 225 -148 126 -62 329 -121 421
-122 l41 0 33 88 c17 48 56 152 85 232 30 80 57 153 60 163 9 22 -10 22 -95
-4z"/>

  <!-- bottom right inner -->
  <path fill="#1a5c3a" d="M1322 488 c3 -7 45 -120 94 -252 l88 -238 66 6 c109 10 255 52 367
105 121 58 243 136 243 156 0 8 -36 27 -82 45 -150 58 -241 82 -453 120 -66
11 -164 32 -217 45 -112 29 -112 29 -106 13z"/>
</g>
</svg>
