<svg width="181" height="32" viewBox="0 0 181 32" fill="none" xmlns="http://www.w3.org/2000/svg">
<path fill-rule="evenodd" clip-rule="evenodd" d="M16 32H91.1773C99.9716 32 107.177 24.8511 107.121 16C107.121 7.20567 99.9149 0 91.1206 0H16C7.20568 0 0 7.20567 0 16C0 24.7943 7.20568 32 16 32ZM68.2553 28.1419H90.2695C96.9078 28.1419 102.411 22.695 102.411 16C102.411 9.30497 96.9645 3.85815 90.2695 3.85815H68.2553C61.5603 3.85815 56.1135 9.30497 56.1135 16C56.1135 22.695 61.5603 28.1419 68.2553 28.1419Z" fill="#D1FF00"/>
<path d="M8.11328 6.75177H29.0495V24.7376H22.5246V11.2908H14.6381V24.7376H8.11328V6.75177Z" fill="#14121E"/>
<path d="M39.2626 19.3475V24.7376H32.7378V6.75177H45.8442C52.5392 6.75177 54.2981 9.24822 54.2981 12.8227V13.1631C54.2981 16.7376 52.4825 19.4043 45.8442 19.4043H39.2626V19.3475ZM39.2626 14.7518H45.2768C47.0357 14.7518 47.5463 13.9574 47.5463 13.0496V12.9929C47.5463 12.1418 47.0357 11.3475 45.2768 11.3475H39.2626V14.7518Z" fill="#14121E"/>
<path d="M110.582 6.75175H125.56C130.723 6.75175 132.255 8.73757 132.255 10.9503V11.1205C132.255 13.5603 130.156 14.5815 128.794 14.7518C130.667 15.0354 133.277 16.0567 133.277 19.1773V19.4042C133.277 22.3546 131.461 24.6808 125.617 24.6808H110.582V6.75175ZM117.106 10.9503V13.5603H123.745C125.106 13.5603 125.56 13.0496 125.56 12.2553V12.1986C125.56 11.4042 125.106 10.8936 123.745 10.8936H117.106V10.9503ZM117.106 17.4184V20.312H124.255C126.014 20.312 126.298 19.5177 126.298 18.8369V18.7234C126.298 18.0425 126.014 17.4184 124.255 17.4184H117.106Z" fill="#14121E"/>
<path d="M149.617 20.7092C148.028 23.3191 146.667 24.6808 142.979 24.6808H137.418V20.0284H140.653C140.993 20.0284 141.22 19.8582 141.22 19.5745C141.22 19.234 141.106 19.0071 140.823 18.6099L133.333 6.69502H140.709L145.986 15.4326L151.092 6.69502H158.128L149.617 20.7092Z" fill="#14121E"/>
<path d="M180.936 19.5177C180.936 23.3759 176.851 25.0213 170.043 25.0213H169.475C162.894 25.0213 157.901 23.2624 157.901 18.3262V18.156H164.766C164.766 20.1418 166.411 20.8227 169.986 20.8227C172.766 20.8227 174.184 20.2553 174.184 19.0638C174.184 17.9291 173.05 17.5319 170.95 17.5319H166.468V13.5035H170.553C172.369 13.5035 173.39 13.2198 173.39 12.1986C173.39 11.234 172.482 10.6099 169.589 10.6099C166.922 10.6099 164.993 11.1773 164.936 12.9929H158.071V12.8227C158.071 8.28367 162.95 6.52481 169.362 6.52481H170.156C176.624 6.52481 180.312 8.17019 180.312 11.234V11.4042C180.312 13.7305 178.723 14.695 176.908 15.1489C178.837 15.5461 180.993 16.7943 180.993 19.2908V19.5177H180.936Z" fill="#14121E"/>
<path d="M72.1701 6.41132C81.7587 6.41132 83.7445 11.5744 83.7445 15.3191V16.0567C83.7445 19.7447 81.7587 25.078 72.1701 25.078H71.092C61.5034 25.078 59.5176 19.7447 59.5176 16.0567V15.3191C59.5176 11.5744 61.5601 6.41132 71.092 6.41132H72.1701ZM76.936 15.4893C76.936 13.7305 76.1417 11.2908 71.6027 11.2908C67.0637 11.2908 66.3261 13.7305 66.3261 15.4893V15.773C66.3261 17.5319 67.1204 20.0851 71.6594 20.0851C76.1984 20.0851 76.936 17.5319 76.936 15.773V15.4893Z" fill="#14121E"/>
</svg>
